<svg id="Component_5_1" data-name="Component 5 – 1" xmlns="http://www.w3.org/2000/svg" width="230" height="357.002" viewBox="0 0 230 357.002">
  <g id="Group_12" data-name="Group 12">
    <g id="Group_9" data-name="Group 9" transform="translate(459 572)">
      <path id="Subtraction_6" data-name="Subtraction 6" d="M-481-52h-47V-409h47V-52Zm-40-31v21h34V-83Zm0-40v21h34v-21Zm0-40v21h34v-21Zm0-40v21h34v-21Zm0-40v21h34v-21Zm0-40v21h34v-21h-34Zm0-40v21h34v-21Zm0-40v21h34v-21h-34Zm0-40v21h34v-21Z" transform="translate(69 -163)" fill="#625f5f"/>
    </g>
    <g id="Group_10" data-name="Group 10" transform="translate(642 572)">
      <path id="Subtraction_5" data-name="Subtraction 5" d="M-664-52h-47V-409h47V-52Zm-40-31h0v21h34V-83Zm0-40v21h34v-21Zm0-40h0v21h34v-21Zm0-40v21h34v-21Zm0-40h0v21h34v-21Zm0-40h0v21h34v-21Zm0-40v21h34v-21Zm0-40v21h34v-21Zm0-40v21h34v-21Z" transform="translate(252 -162.999)" fill="#625f5f"/>
    </g>
    <path id="Subtraction_1" data-name="Subtraction 1" d="M83,458H-69V163H83V458ZM-50,345v87H65V345H-50Zm0-147v87H65V198Z" transform="translate(109 -134)" fill="#625f5f"/>
  </g>
</svg>
