<svg xmlns="http://www.w3.org/2000/svg" width="400" height="400" viewBox="0 0 400 400">
  <path id="Subtraction_1" data-name="Subtraction 1" d="M200,400a201.482,201.482,0,0,1-40.307-4.063,198.9,198.9,0,0,1-71.515-30.093,200.583,200.583,0,0,1-72.461-87.994A199,199,0,0,1,4.063,240.307a201.952,201.952,0,0,1,0-80.614A198.9,198.9,0,0,1,34.157,88.178a200.583,200.583,0,0,1,87.994-72.461A199,199,0,0,1,159.693,4.063a201.952,201.952,0,0,1,80.614,0,198.9,198.9,0,0,1,71.515,30.094,200.583,200.583,0,0,1,72.461,87.994,199,199,0,0,1,11.654,37.542,201.952,201.952,0,0,1,0,80.614,198.9,198.9,0,0,1-30.093,71.515,200.583,200.583,0,0,1-87.994,72.461,199,199,0,0,1-37.542,11.654A201.482,201.482,0,0,1,200,400Zm69.347-153.983a13.825,13.825,0,0,0-10.647,4.8c-2.869,3.186-4.324,7.423-4.324,12.595a16.694,16.694,0,0,0,4.392,11.894,14.355,14.355,0,0,0,10.818,4.648c6.26,0,11.113-3.266,14.423-9.706l-2.221-.958a16.192,16.192,0,0,1-4.726,5.717,10.253,10.253,0,0,1-6.041,1.906,9.517,9.517,0,0,1-7.485-3.383c-1.7-2-2.621-5.469-2.734-10.323h22.935a23.575,23.575,0,0,0-1.265-7.929,14.5,14.5,0,0,0-5.092-6.871A13.617,13.617,0,0,0,269.347,246.017Zm-66.616,0a14.027,14.027,0,0,0-10.7,4.717c-2.88,3.13-4.341,7.259-4.341,12.271,0,4.99,1.455,9.107,4.324,12.236a13.826,13.826,0,0,0,10.544,4.717A15.209,15.209,0,0,0,210.4,277.8a14.74,14.74,0,0,0,5.605-5.862,19.026,19.026,0,0,0,1.966-8.972c0-5.057-1.478-9.191-4.392-12.288A14.373,14.373,0,0,0,202.73,246.017ZM124.869,274.9h0a20.074,20.074,0,0,0,13.6,5.057,16.343,16.343,0,0,0,11.877-4.495,15.246,15.246,0,0,0,4.6-11.33,12.2,12.2,0,0,0-6.751-11.416c-2.256-1.247-6.241-2.5-11.846-3.716a36.536,36.536,0,0,1-8.186-2.438,8.094,8.094,0,0,1-3.262-2.976,8.182,8.182,0,0,1-1.093-4.259,8.762,8.762,0,0,1,2.871-6.6,10.383,10.383,0,0,1,7.383-2.7,13.612,13.612,0,0,1,9.554,3.9c2.755,2.585,4.866,6.748,6.272,12.373h2.255l-.2-18.423h-2.5l-3.076,4.409a21.44,21.44,0,0,0-5.947-3.76,16.483,16.483,0,0,0-6.05-1.128,14.57,14.57,0,0,0-15.142,15.176c0,4.24,1.437,7.564,4.272,9.878,2.02,1.633,5.861,3.128,11.417,4.443a58.821,58.821,0,0,1,10.219,3.025,9.108,9.108,0,0,1,3.794,3.076,7.629,7.629,0,0,1,1.2,4.255,9.619,9.619,0,0,1-3.2,7.263,11.647,11.647,0,0,1-8.255,2.991,15.363,15.363,0,0,1-5.939-1.171,17.8,17.8,0,0,1-5.306-3.512,19.661,19.661,0,0,1-4.1-5.537,26.367,26.367,0,0,1-2.324-7.246h-2.461v19.585h2.461l3.861-4.716Zm43.955-40.981c-.159,4.536-1.233,8.113-3.191,10.63a9,9,0,0,1-5.8,3.179v2.392h5.572v21.5a7.6,7.6,0,0,0,2.238,5.691,8.577,8.577,0,0,0,6.2,2.171,8.907,8.907,0,0,0,7.007-3.093c1.792-2.053,2.769-5.244,2.905-9.485h-2.291c-.181,3.289-.825,5.681-1.914,7.109a4.876,4.876,0,0,1-3.965,2.154,4.133,4.133,0,0,1-3.213-1.418,5.972,5.972,0,0,1-1.264-4.085V250.118h10.356v-3.145H171.114V233.917Zm53.492,42.52V279h19.893v-2.563h-4.067a4.825,4.825,0,0,1-2.8-.616,2.1,2.1,0,0,1-.821-1.777v-6.87a33.959,33.959,0,0,1,2.051-9.947,14.831,14.831,0,0,1,3.794-6.288,5.052,5.052,0,0,1,3.179-1.641c.431,0,.65.172.65.512a4.079,4.079,0,0,1-.513,1.06,4.337,4.337,0,0,0-.547,2.119,3.955,3.955,0,0,0,.94,2.768,3.214,3.214,0,0,0,2.478,1.026,3.335,3.335,0,0,0,2.615-1.2,4.952,4.952,0,0,0,1.043-3.349,5.85,5.85,0,0,0-1.555-4.256,5.571,5.571,0,0,0-4.154-1.589,7.938,7.938,0,0,0-6.425,3.281,28.583,28.583,0,0,0-4.443,9.673V246.393l-11.519.58V249.4h2.8a3.681,3.681,0,0,1,2.838,1.076,4.932,4.932,0,0,1,.991,3.4v20.4a1.878,1.878,0,0,1-.821,1.521,3.946,3.946,0,0,1-2.426.633ZM93.281,131.27a30.175,30.175,0,0,0-16.162,4.858,34.191,34.191,0,0,0-12.232,13.428A41.123,41.123,0,0,0,60.42,168.77a42.1,42.1,0,0,0,4.614,19.653,34.437,34.437,0,0,0,12.232,13.622,30.365,30.365,0,0,0,16.308,4.761,31.837,31.837,0,0,0,16.822-4.858A34.087,34.087,0,0,0,122.871,188.4a44.013,44.013,0,0,0,.025-38.892,33.583,33.583,0,0,0-12.5-13.428A32.746,32.746,0,0,0,93.281,131.27Zm169.775,66.944h0c1.134,3.012,2.473,5.147,3.979,6.345a8.733,8.733,0,0,0,5.591,1.807,10.884,10.884,0,0,0,7.91-3.662l-1.758-2.734a6.829,6.829,0,0,1-4,1.562,3.241,3.241,0,0,1-2.783-1.612,8.788,8.788,0,0,1-1.075-4.883v-25a10.906,10.906,0,0,0-4.3-8.643c-2.851-2.333-7.041-3.515-12.451-3.515-5.864,0-10.669,1.347-14.282,4s-5.444,5.63-5.444,8.838a5.823,5.823,0,0,0,1.635,4.248,5.515,5.515,0,0,0,4.077,1.661,5.09,5.09,0,0,0,3.712-1.392,4.835,4.835,0,0,0,1.416-3.588,6.206,6.206,0,0,0-1.416-3.467,4.8,4.8,0,0,1-1.173-2.295c0-.842.739-1.713,2.2-2.588a14.591,14.591,0,0,1,7.324-1.758,11.043,11.043,0,0,1,7.568,2.637,8.224,8.224,0,0,1,2.979,6.348v6.934c-9.233,1.036-16.732,3.147-22.29,6.274s-8.375,7.111-8.375,11.841a9.662,9.662,0,0,0,3.662,7.763c2.43,2.009,6.028,3.028,10.694,3.028a19.986,19.986,0,0,0,8.447-1.636c2.331-1.084,5.074-3.276,8.153-6.517ZM202.8,157.881a19.753,19.753,0,0,0-15.21,6.861c-4.1,4.553-6.177,10.606-6.177,17.993,0,6.869,2.111,12.586,6.275,16.992a20.511,20.511,0,0,0,15.454,6.641c8.942,0,15.875-4.666,20.605-13.867l-3.173-1.367a23.131,23.131,0,0,1-6.751,8.166,14.648,14.648,0,0,1-8.63,2.722,14.275,14.275,0,0,1-5.921-1.208,13.939,13.939,0,0,1-4.773-3.626,14.755,14.755,0,0,1-2.807-5.835,38.968,38.968,0,0,1-1.1-8.911h32.764a33.687,33.687,0,0,0-1.806-11.328,20.721,20.721,0,0,0-7.276-9.814A19.448,19.448,0,0,0,202.8,157.881Zm-44.775,0a21.435,21.435,0,0,0-15.625,6.665c-4.407,4.423-6.641,10.739-6.641,18.774,0,6.933,2.037,12.568,6.055,16.748a20.74,20.74,0,0,0,15.576,6.3c8.619,0,14.27-4.715,16.8-14.014l-3.174-.928a19.659,19.659,0,0,1-5.127,8.057,10.808,10.808,0,0,1-7.275,2.686,12.086,12.086,0,0,1-5.518-1.262,13.226,13.226,0,0,1-4.444-3.786,17.3,17.3,0,0,1-2.929-6.237,34.2,34.2,0,0,1-.977-8.614,36.453,36.453,0,0,1,1.1-9.291,22.922,22.922,0,0,1,3.3-7.291,9.877,9.877,0,0,1,3.8-3.255,12.014,12.014,0,0,1,5.237-1.085,8.9,8.9,0,0,1,5.176,1.338c1.263.888,1.9,1.813,1.9,2.749a2.669,2.669,0,0,1-.781,1.461,6.257,6.257,0,0,0-1.66,4.088,4.985,4.985,0,0,0,1.514,3.65,5.213,5.213,0,0,0,7.592-.274,6.448,6.448,0,0,0,1.636-4.517c0-3.013-1.479-5.789-4.395-8.252A16.736,16.736,0,0,0,158.027,157.881ZM317.7,201.338V205h24.121v-3.662h-3.223a5.458,5.458,0,0,1-3.759-1.05,4.7,4.7,0,0,1-1.123-3.54V174.482a19.77,19.77,0,0,0-1.856-8.643,12.592,12.592,0,0,0-4.931-5.639,15.059,15.059,0,0,0-7.618-1.782,18.168,18.168,0,0,0-9.448,2.49,21.852,21.852,0,0,0-7.251,7.471,75.545,75.545,0,0,0-1.367-10.059l-15.185.928v3.174H288.4a6.384,6.384,0,0,1,4.565,1.514,5.881,5.881,0,0,1,1.588,4.443V197.92a3,3,0,0,1-1.246,2.442,5.83,5.83,0,0,1-3.638.977h-3.173V205h24.219v-3.662h-3.174a5.56,5.56,0,0,1-3.784-1.05,4.642,4.642,0,0,1-1.148-3.54V179.8a21.305,21.305,0,0,1,.922-6.458,15.165,15.165,0,0,1,2.765-5.115,12.455,12.455,0,0,1,4.144-3.332,11.536,11.536,0,0,1,5.06-1.111,10.286,10.286,0,0,1,4.859,1.1,9.041,9.041,0,0,1,3.442,3.3c1.3,2.041,1.954,5.228,1.954,9.473v19.579a3.735,3.735,0,0,1-1.27,3.076c-.842.681-2.353,1.026-4.492,1.026ZM202.73,277.53a7.422,7.422,0,0,1-6.306-3.521c-1.621-2.336-2.443-6.085-2.443-11.142,0-4.967.828-8.653,2.461-10.955a7.461,7.461,0,0,1,6.289-3.469,7.725,7.725,0,0,1,6.511,3.316c1.621,2.2,2.443,5.811,2.443,10.732,0,5.306-.834,9.182-2.478,11.518A7.621,7.621,0,0,1,202.73,277.53Zm71.949-16.748H260.8c.068-4.22.937-7.428,2.58-9.536a7.453,7.453,0,0,1,6.033-3.179,7.2,7.2,0,0,1,5.52,2.633,9.313,9.313,0,0,1,2.342,6.391,4.6,4.6,0,0,1-.684,2.855A2.341,2.341,0,0,1,274.679,260.782ZM93.769,202.949a18.341,18.341,0,0,1-8.215-1.855,20.633,20.633,0,0,1-6.774-5.566,25.207,25.207,0,0,1-4.541-10.413,76.058,76.058,0,0,1-1.514-16.395A70.018,70.018,0,0,1,74.2,153.34a27.626,27.626,0,0,1,4.431-10.4,19.894,19.894,0,0,1,6.811-5.933,18.7,18.7,0,0,1,8.618-1.977,18.276,18.276,0,0,1,10.888,3.515c3.24,2.333,5.77,5.971,7.52,10.815s2.637,11.668,2.637,20.288c0,7.905-.944,14.378-2.807,19.238s-4.4,8.458-7.545,10.694A18.551,18.551,0,0,1,93.769,202.949Zm154.786-.391a6.88,6.88,0,0,1-5.224-2.124,8.271,8.271,0,0,1-2-5.883,11.23,11.23,0,0,1,.964-4.761,9.413,9.413,0,0,1,2.893-3.541c3.435-2.56,9.35-4.433,17.579-5.566v6.543a16.731,16.731,0,0,1-1.056,6.036,15.2,15.2,0,0,1-7.776,8.2A13.324,13.324,0,0,1,248.555,202.559ZM210.42,178.975H190.6a32.785,32.785,0,0,1,1-7.947,15.936,15.936,0,0,1,2.691-5.676,12.34,12.34,0,0,1,3.924-3.406,9.96,9.96,0,0,1,4.694-1.135,10.288,10.288,0,0,1,7.886,3.76,13.313,13.313,0,0,1,3.344,9.13,6.572,6.572,0,0,1-.977,4.077A3.344,3.344,0,0,1,210.42,178.975Z" transform="translate(0 0)" fill="#ffffff"/>
</svg>
